<?xml version="1.0" encoding="UTF-8"?>
<svg width="48" height="48" viewBox="0 0 48 48" fill="none" xmlns="http://www.w3.org/2000/svg">
  <path d="M24 36C31.732 36 38 29.732 38 22C38 14.268 31.732 8 24 8C16.268 8 10 14.268 10 22C10 29.732 16.268 36 24 36Z" stroke="#000000" stroke-width="2" stroke-linecap="round" stroke-linejoin="round" style="stroke-dasharray: 2 4"/>
  <path d="M20 40H28" stroke="#000000" stroke-width="2" stroke-linecap="round"/>
  <path d="M24 8V4" stroke="#000000" stroke-width="2" stroke-linecap="round"/>
  <path d="M35.8995 12.1005L38.7279 9.27208" stroke="#000000" stroke-width="2" stroke-linecap="round"/>
  <path d="M12.1005 12.1005L9.27208 9.27208" stroke="#000000" stroke-width="2" stroke-linecap="round"/>
  <path d="M24 29C27.866 29 31 25.866 31 22C31 18.134 27.866 15 24 15C20.134 15 17 18.134 17 22C17 25.866 20.134 29 24 29Z" stroke="#000000" stroke-width="2"/>
</svg> 