<?xml version="1.0" encoding="UTF-8"?>
<svg width="48" height="48" viewBox="0 0 48 48" fill="none" xmlns="http://www.w3.org/2000/svg">
  <path d="M24 44C35.0457 44 44 35.0457 44 24C44 12.9543 35.0457 4 24 4C12.9543 4 4 12.9543 4 24C4 35.0457 12.9543 44 24 44Z" stroke="#000000" stroke-width="2" stroke-linecap="round" stroke-linejoin="round" style="stroke-dasharray: 2 4"/>
  <path d="M16 20C17.1046 20 18 19.1046 18 18C18 16.8954 17.1046 16 16 16C14.8954 16 14 16.8954 14 18C14 19.1046 14.8954 20 16 20Z" fill="#000000"/>
  <path d="M32 20C33.1046 20 34 19.1046 34 18C34 16.8954 33.1046 16 32 16C30.8954 16 30 16.8954 30 18C30 19.1046 30.8954 20 32 20Z" fill="#000000"/>
  <path d="M16 34C16 34 20 28 24 28C28 28 32 34 32 34" stroke="#000000" stroke-width="2" stroke-linecap="round" stroke-linejoin="round"/>
</svg> 