<?xml version="1.0" encoding="UTF-8"?>
<svg width="48" height="48" viewBox="0 0 48 48" fill="none" xmlns="http://www.w3.org/2000/svg">
  <path d="M24 44C35.0457 44 44 35.0457 44 24C44 12.9543 35.0457 4 24 4C12.9543 4 4 12.9543 4 24C4 35.0457 12.9543 44 24 44Z" stroke="#FFFFFF" stroke-width="2" style="stroke-dasharray: 2 4"/>
  <path d="M31 18C32.1046 18 33 17.1046 33 16C33 14.8954 32.1046 14 31 14C29.8954 14 29 14.8954 29 16C29 17.1046 29.8954 18 31 18Z" stroke="#FFFFFF" stroke-width="2"/>
  <path d="M17 18C18.1046 18 19 17.1046 19 16C19 14.8954 18.1046 14 17 14C15.8954 14 15 14.8954 15 16C15 17.1046 15.8954 18 17 18Z" stroke="#FFFFFF" stroke-width="2"/>
  <path d="M16 28C16 28 19 34 24 34C29 34 32 28 32 28" stroke="#FFFFFF" stroke-width="2" stroke-linecap="round"/>
</svg> 